<svg width="800" height="800" viewBox="0 0 800 800" fill="none" xmlns="http://www.w3.org/2000/svg">
<g clip-path="url(#clip0_2_3)">
<path d="M400 800C620.914 800 800 620.914 800 400C800 179.086 620.914 0 400 0C179.086 0 0 179.086 0 400C0 620.914 179.086 800 400 800Z" fill="#76C2AF"/>
<g opacity="0.2">
<path d="M531.25 550C522.5 550 515 546.25 510 537.5C502.5 526.25 506.25 510 518.75 502.5L645 425C645 425 645 425 645 423.75C645 422.5 645 423.75 645 422.5L518.75 345C507.5 337.5 503.75 322.5 510 310C517.5 298.75 532.5 295 545 301.25L677.5 383.75L680 386.25C690 396.25 695 410 695 423.75C695 437.5 690 451.25 680 461.25L677.5 463.75L545 546.25C540 548.75 535 550 531.25 550Z" fill="#231F20"/>
<path d="M268.75 550C263.75 550 260 548.75 256.25 546.25L123.75 463.75L121.25 462.5C111.25 452.5 106.25 438.75 106.25 425C106.25 411.25 111.25 397.5 121.25 387.5L123.75 385L256.25 302.5C267.5 295 283.75 298.75 291.25 311.25C298.75 322.5 295 338.75 282.5 346.25L156.25 423.75C156.25 423.75 156.25 423.75 156.25 425C156.25 426.25 156.25 425 156.25 426.25L282.5 503.75C293.75 511.25 297.5 526.25 291.25 538.75C286.25 546.25 277.5 550 268.75 550Z" fill="#231F20"/>
</g>
<g opacity="0.2">
<path d="M318.75 662.5C316.25 662.5 312.5 662.5 310 661.25C297.5 656.25 291.25 641.25 295 628.75L457.5 203.75C462.5 191.25 477.5 185 490 188.75C502.5 193.75 508.75 208.75 505 221.25L342.5 646.25C338.75 656.25 328.75 662.5 318.75 662.5Z" fill="#231F20"/>
</g>
<path d="M531.25 525C522.5 525 515 521.25 510 512.5C502.5 501.25 506.25 485 518.75 477.5L645 400V398.75L518.75 321.25C507.5 313.75 503.75 298.75 510 286.25C517.5 275 532.5 271.25 545 277.5L677.5 360L680 362.5C700 382.5 700 416.25 680 437.5L677.5 440L545 522.5C540 523.75 535 525 531.25 525Z" fill="white"/>
<path d="M268.75 525C263.75 525 260 523.75 256.25 521.25L123.75 438.75L121.25 437.5C101.25 417.5 101.25 383.75 121.25 362.5L123.75 360L256.25 277.5C267.5 270 283.75 273.75 291.25 286.25C298.75 297.5 295 313.75 282.5 321.25L156.25 398.75V400L282.5 477.5C293.75 485 297.5 500 291.25 512.5C286.25 521.25 277.5 525 268.75 525Z" fill="white"/>
<path d="M318.75 637.5C316.25 637.5 312.5 637.5 310 636.25C297.5 631.25 291.25 616.25 295 603.75L457.5 178.75C462.5 166.25 477.5 160 490 163.75C502.5 168.75 508.75 183.75 505 196.25L342.5 621.25C338.75 631.25 328.75 637.5 318.75 637.5Z" fill="white"/>
<path d="M418.828 395.193C418.233 397.716 417.341 401.501 416.222 403.9C411.148 416.022 403.359 420.845 398.997 415.823L259.041 209.733C254.977 203.449 255.917 187.691 260.465 175.446C265.539 163.324 284.639 170.423 289 175.446L417.646 369.613C420.957 374.388 421.205 385.1 418.828 395.193Z" fill="white" fill-opacity="0.52"/>
</g>
<defs>
<clipPath id="clip0_2_3">
<rect width="800" height="800" fill="white"/>
</clipPath>
</defs>
</svg>
